<svg width="29" height="29" viewBox="0 0 29 29" fill="none" xmlns="http://www.w3.org/2000/svg">
<g clip-path="url(#clip0_1365_1173)">
<path d="M14.5 29C6.49187 29 0 22.5081 0 14.5C0 6.49187 6.49187 0 14.5 0C22.5081 0 29 6.49187 29 14.5C29 22.5081 22.5081 29 14.5 29Z" fill="#627EEA"/>
<path d="M14.0487 3.625V11.6634L7.25455 14.6994L14.0487 3.625Z" fill="white" fill-opacity="0.602"/>
<path d="M14.0487 3.625L20.8438 14.6994L14.0487 11.6634V3.625Z" fill="white"/>
<path d="M14.0487 19.9085V25.3704L7.25002 15.9645L14.0487 19.9085Z" fill="white" fill-opacity="0.602"/>
<path d="M14.0487 25.3704V19.9076L20.8438 15.9645L14.0487 25.3704Z" fill="white"/>
<path d="M14.0487 18.6443L7.25455 14.6993L14.0487 11.6652V18.6443Z" fill="white" fill-opacity="0.2"/>
<path d="M20.8438 14.6993L14.0487 18.6443V11.6652L20.8438 14.6993Z" fill="white" fill-opacity="0.602"/>
</g>
<defs>
<clipPath id="clip0_1365_1173">
<rect width="29" height="29" fill="white" transform="matrix(-1 0 0 1 29 0)"/>
</clipPath>
</defs>
</svg>
