<svg width="29" height="29" viewBox="0 0 29 29" fill="none" xmlns="http://www.w3.org/2000/svg">
<circle cx="14.5" cy="14.5" r="14.25" fill="#F4F6F8" stroke="#E8ECFD" stroke-width="0.5"/>
<path d="M18.2159 11.9986C17.9163 11.8154 17.5311 11.8154 17.1887 11.9986L14.7918 13.5108L13.1654 14.4731L10.8113 15.9852C10.5117 16.1685 10.1265 16.1685 9.7841 15.9852L7.94365 14.7938C7.64404 14.6105 7.43003 14.2439 7.43003 13.8315V11.5404C7.43003 11.1738 7.60124 10.8073 7.94365 10.5781L9.7841 9.43259C10.0837 9.2493 10.4689 9.2493 10.8113 9.43259L12.6518 10.624C12.9514 10.8073 13.1654 11.1738 13.1654 11.5862V13.0984L14.7918 12.0903V10.5323C14.7918 10.1657 14.6206 9.79917 14.2782 9.57005L10.8541 7.4164C10.5545 7.23311 10.1693 7.23311 9.8269 7.4164L6.3172 9.61588C5.97479 9.79917 5.80359 10.1657 5.80359 10.5323V14.8396C5.80359 15.2062 5.97479 15.5728 6.3172 15.8019L9.7841 17.9556C10.0837 18.1389 10.4689 18.1389 10.8113 17.9556L13.1654 16.4892L14.7918 15.4812L17.1459 14.0148C17.4455 13.8315 17.8307 13.8315 18.1731 14.0148L20.0136 15.1604C20.3132 15.3437 20.5272 15.7103 20.5272 16.1227V18.4138C20.5272 18.7804 20.356 19.1469 20.0136 19.3761L18.2159 20.5216C17.9163 20.7049 17.5311 20.7049 17.1887 20.5216L15.3483 19.3761C15.0486 19.1928 14.8346 18.8262 14.8346 18.4138V16.9475L13.2082 17.9556V19.4677C13.2082 19.8343 13.3794 20.2009 13.7218 20.43L17.1887 22.5836C17.4883 22.7669 17.8735 22.7669 18.2159 22.5836L21.6828 20.43C21.9824 20.2467 22.1964 19.8801 22.1964 19.4677V15.1146C22.1964 14.748 22.0252 14.3814 21.6828 14.1523L18.2159 11.9986Z" fill="#8247E5"/>
</svg>
