<?xml version="1.0" encoding="UTF-8"?>
<svg id="Layer_2" data-name="Layer 2" xmlns="http://www.w3.org/2000/svg" viewBox="0 0 92.73 92.73">
  <defs>
    <style>
      .cls-1 {
        fill: #fd684e;
      }

      .cls-2 {
        fill: #fef1ec;
      }
    </style>
  </defs>
  <g id="Layer_1-2" data-name="Layer 1">
    <g>
      <circle class="cls-1" cx="46.36" cy="46.36" r="46.36"/>
      <circle class="cls-2" cx="23.24" cy="48.38" r="1.94"/>
      <circle class="cls-2" cx="69.49" cy="48.38" r="1.94"/>
      <circle class="cls-2" cx="66.39" cy="36.82" r="1.94"/>
      <circle class="cls-2" cx="57.93" cy="28.36" r="1.94"/>
      <circle class="cls-2" cx="46.36" cy="25.26" r="1.94"/>
      <circle class="cls-2" cx="34.8" cy="28.36" r="1.94"/>
      <circle class="cls-2" cx="26.34" cy="36.82" r="1.94"/>
      <path class="cls-2" d="M32.64,36.85c3.27-3.94,8.2-6.46,13.72-6.46,7.17,0,13.35,4.24,16.18,10.34h-24.87c-.73,0-1.43-.29-1.94-.8l-3.09-3.08Z"/>
      <path class="cls-2" d="M63.61,43.57h-27.12c-.73,0-1.43-.29-1.94-.81l-3.62-3.61c-1.4,2.42-2.24,5.2-2.36,8.16h35.58c-.05-1.27-.24-2.55-.55-3.74Z"/>
      <path class="cls-2" d="M28.57,50.14c.05,1.27,.23,2.51,.54,3.7l.08,.04h27.05c.73,0,1.43,.29,1.94,.81l3.61,3.61c1.4-2.42,2.24-5.2,2.36-8.16H28.57Z"/>
      <path class="cls-2" d="M19.69,56.72H54.85c.77,0,1.5,.32,2.02,.88l1.42,1.53H22.11c-1.33,0-2.41-1.08-2.41-2.41h0Z"/>
      <path class="cls-2" d="M65.5,56.72h7.54c0,1.33-1.09,2.41-2.42,2.41h-6.08s.71-1.21,.96-2.41Z"/>
      <path class="cls-2" d="M24.6,61.94l43.54,.08h0c0,1.33-1.08,2.41-2.41,2.41l-38.71-.07c-1.33,0-2.41-1.08-2.41-2.42h0Z"/>
    </g>
  </g>
</svg>