<svg width="48" height="64" viewBox="0 0 48 64" fill="none" xmlns="http://www.w3.org/2000/svg">
<path d="M13.176 22.797H4.98295V59.4087H13.176V22.797Z" fill="#7173FC"/>
<path d="M24.7015 14.1934H16.5084V50.8052H24.7015V14.1934Z" fill="#7173FC"/>
<path d="M36.1852 26.9496H27.9926V64H36.1852V26.9496Z" fill="#7173FC"/>
<path d="M47.6693 6.82723H39.4767V43.8776H47.6693V6.82723Z" fill="#7173FC"/>
<path d="M43.9627 0H43.1552V43.838H43.9627V0Z" fill="#7173FC"/>
<path d="M20.9047 16.8884H20.0972V56.3246H20.9047V16.8884Z" fill="#7173FC"/>
<path d="M6.5944 63.9603C10.2364 63.9603 13.1888 61.4869 13.1888 58.4357C13.1888 55.3845 10.2364 52.911 6.5944 52.911C2.95241 52.911 0 55.3845 0 58.4357C0 61.4869 2.95241 63.9603 6.5944 63.9603Z" fill="#7173FC"/>
</svg>
