<svg width="99" height="35" viewBox="0 0 99 35" fill="none" xmlns="http://www.w3.org/2000/svg">
<path d="M41.9901 21.3224L45.2037 22.0136C44.8995 23.6462 44.1391 24.9299 42.9224 25.8647C41.7057 26.7995 40.2312 27.2669 38.4987 27.2669C36.5283 27.2669 34.8553 26.602 33.48 25.2722C32.1178 23.9425 31.4368 22.3033 31.4368 20.3547C31.4368 18.4193 32.1178 16.7867 33.48 15.457C34.8553 14.114 36.5283 13.4426 38.4987 13.4426C40.1651 13.4426 41.6132 13.9034 42.8431 14.825C44.0862 15.7466 44.8664 16.9776 45.1838 18.5181L41.9702 19.3278C41.7719 18.3667 41.3619 17.6425 40.7403 17.1554C40.132 16.6682 39.3848 16.4247 38.4987 16.4247C37.4408 16.4247 36.5415 16.7999 35.8009 17.5504C35.0736 18.3008 34.7099 19.2356 34.7099 20.3547C34.7099 21.4738 35.0736 22.4152 35.8009 23.1788C36.5415 23.9293 37.4408 24.3045 38.4987 24.3045C39.3716 24.3045 40.1122 24.0544 40.7205 23.5541C41.3421 23.0538 41.7652 22.3099 41.9901 21.3224Z" fill="#1F2040"/>
<path d="M57.3969 24.1663V26.9706H47.042V13.7388H57.3374V16.5432H50.3151V19.0315H56.7621V21.6779H50.3151V24.1663H57.3969Z" fill="#1F2040"/>
<path d="M70.5489 16.5827H66.2443V26.9706H62.991V16.5827H58.6863V13.7388H70.5489V16.5827Z" fill="#1F2040"/>
<path d="M84.2701 26.9706H80.3225L76.3154 22.4284H75.3632V26.9706H72.0901V13.7388H78.8149C80.2564 13.7388 81.4135 14.1404 82.2864 14.9435C83.1592 15.7335 83.5956 16.7736 83.5956 18.0638C83.5956 19.1435 83.2848 20.0585 82.6633 20.809C82.0417 21.5462 81.1887 22.0334 80.1043 22.2704L84.2701 26.9706ZM75.3632 19.703H78.4578C79.0397 19.703 79.5026 19.5582 79.8464 19.2685C80.2035 18.9789 80.382 18.5905 80.382 18.1033C80.382 17.6294 80.2035 17.2476 79.8464 16.9579C79.5026 16.6682 79.0397 16.5234 78.4578 16.5234H75.3632V19.703Z" fill="#1F2040"/>
<path d="M99 26.9706H95.5087L94.5763 24.5613H88.9823L88.05 26.9706H84.5388L90.0932 13.7388H93.4456L99 26.9706ZM93.4853 21.7569L91.7793 17.4121L90.0932 21.7569H93.4853Z" fill="#1F2040"/>
<path d="M7.2468 12.4671H2.74062V32.4891H7.2468V12.4671Z" fill="#1F2040"/>
<path d="M13.5858 7.76204H9.07964V27.7841H13.5858V7.76204Z" fill="#1F2040"/>
<path d="M19.9018 14.7381H15.3959V35H19.9018V14.7381Z" fill="#1F2040"/>
<path d="M26.2181 3.73364H21.7122V23.9956H26.2181V3.73364Z" fill="#1F2040"/>
<path d="M24.1795 0H23.7354V23.9739H24.1795V0Z" fill="#1F2040"/>
<path d="M11.4976 9.23585H11.0535V30.8025H11.4976V9.23585Z" fill="#1F2040"/>
<path d="M3.62692 34.9783C5.63001 34.9783 7.25384 33.6256 7.25384 31.957C7.25384 30.2884 5.63001 28.9357 3.62692 28.9357C1.62383 28.9357 0 30.2884 0 31.957C0 33.6256 1.62383 34.9783 3.62692 34.9783Z" fill="#1F2040"/>
</svg>
