<svg width="106" height="106" viewBox="0 0 106 106" fill="none" xmlns="http://www.w3.org/2000/svg">
<g clip-path="url(#clip0_613_10813)">
<path d="M52.9994 2.08339L53.9072 1.3652L55.632 0.000244141L52.9994 2.08339Z" fill="#7173FC"/>
<path d="M59.7145 44.5135C59.7145 39.1031 57.4514 36.2428 55.6329 33.9445C54.1044 32.0129 53 30.6171 53 27.5421C53 24.4667 54.1044 23.0711 55.6329 21.1392C57.4512 18.8408 59.7145 15.9804 59.7145 10.5699C59.7145 5.15933 57.4512 2.29878 55.6322 0.000732422L53.9073 1.36528L50.367 4.16682C51.8955 6.09863 53 7.49444 53 10.5699C53 13.6455 51.8957 15.0411 50.367 16.9729C48.5487 19.2714 46.2856 22.1315 46.2856 27.5421C46.2856 32.9524 48.5487 35.8126 50.3672 38.1108C51.8957 40.0426 52.9998 41.438 52.9998 44.5135C52.9998 47.5889 51.8955 48.9845 50.3672 50.9163C48.5489 53.2148 46.2856 56.0749 46.2856 61.4855C46.2856 66.8958 48.5487 69.7562 50.3672 72.0544C51.8957 73.9863 52.9998 75.3819 52.9998 78.4573C52.9998 81.5334 51.8953 82.9292 50.3668 84.8614C48.5485 87.1599 46.2854 90.0204 46.2854 95.4312C46.2854 100.843 48.548 103.702 50.3662 106L55.6318 101.834C54.1041 99.9028 53 98.5074 53 95.4312C53 92.3551 54.1046 90.9593 55.6331 89.0271C57.4514 86.7286 59.7145 83.8681 59.7145 78.4573C59.7145 73.0467 57.4514 70.1862 55.6329 67.8881C54.1044 65.9563 53 64.5609 53 61.4855C53 58.41 54.1044 57.0144 55.6329 55.0826C57.4512 52.7844 59.7145 49.9242 59.7145 44.5135Z" fill="#7173FC"/>
<path d="M19.9957 2.08339L20.7603 1.47845L22.6283 0.000244141L19.9957 2.08339Z" fill="#7173FC"/>
<path d="M19.9961 27.5423C19.9961 24.4669 21.1006 23.0713 22.6289 21.1395C24.4475 18.8408 26.7106 15.9804 26.7106 10.5699C26.7106 5.15933 24.4473 2.29878 22.6287 0.000732422L20.7603 1.47852L17.3633 4.16703C18.892 6.09884 19.9965 7.49444 19.9965 10.5699C19.9965 13.6455 18.892 15.0411 17.3635 16.9729C15.5452 19.2714 13.2821 22.1318 13.2821 27.5421C13.2821 32.9524 15.5452 35.8126 17.3635 38.1108C18.892 40.0426 19.9965 41.438 19.9965 44.5135C19.9965 47.5889 18.892 48.9845 17.3635 50.9163C15.5452 53.2148 13.2821 56.0749 13.2821 61.4855C13.2821 66.8958 15.5445 69.7554 17.3623 72.053L22.6279 67.8867C21.1 65.9559 19.9963 64.5612 19.9963 61.4857C19.9963 58.4103 21.1008 57.0147 22.6294 55.0829C24.4477 52.7844 26.7108 49.9243 26.7108 44.5137C26.7108 39.1033 24.4475 36.243 22.6292 33.9447C21.1004 32.0129 19.9961 30.6173 19.9961 27.5423Z" fill="#7173FC"/>
<path d="M86.0034 27.5421C86.0034 24.4667 87.1079 23.0711 88.6362 21.1392C90.4546 18.8408 92.7179 15.9804 92.7179 10.5699C92.7179 5.15933 90.4546 2.29899 88.636 0.000732422L86.7506 1.49219L83.3706 4.16703C84.8993 6.09884 86.0036 7.49444 86.0036 10.5699C86.0036 13.6455 84.8991 15.0411 83.3706 16.9729C81.5522 19.2714 79.2892 22.1318 79.2892 27.5421C79.2892 32.9524 81.5522 35.8126 83.3706 38.1108C84.8991 40.0426 86.0036 41.438 86.0036 44.5135C86.0036 47.5889 84.8991 48.9845 83.3706 50.9163C81.5522 53.2148 79.2892 56.0749 79.2892 61.4855C79.2892 66.8958 81.5516 69.7554 83.3694 72.053L88.635 67.8867C87.1071 65.9559 86.0034 64.5612 86.0034 61.4857C86.0034 58.4103 87.1079 57.0147 88.6364 55.0829C90.455 52.7842 92.7181 49.9238 92.7181 44.5135C92.7181 39.1031 90.4548 36.2428 88.6364 33.9445C87.1077 32.0127 86.0034 30.6171 86.0034 27.5421Z" fill="#7173FC"/>
<path d="M86.0031 2.08339L86.7506 1.4919L88.6357 0.000244141L86.0031 2.08339Z" fill="#7173FC"/>
<path d="M6.85165 48.5458C9.07876 48.5458 10.8842 46.7404 10.8842 44.5133C10.8842 42.2861 9.07876 40.4807 6.85165 40.4807C4.62453 40.4807 2.81909 42.2861 2.81909 44.5133C2.81909 46.7404 4.62453 48.5458 6.85165 48.5458Z" fill="#7173FC"/>
<path d="M4.03255 99.4626C6.25967 99.4626 8.06511 97.6571 8.06511 95.43C8.06511 93.2029 6.25967 91.3975 4.03255 91.3975C1.80544 91.3975 0 93.2029 0 95.43C0 97.6571 1.80544 99.4626 4.03255 99.4626Z" fill="#7173FC"/>
<path d="M36.4986 82.4911C38.7257 82.4911 40.5312 80.6857 40.5312 78.4586C40.5312 76.2315 38.7257 74.426 36.4986 74.426C34.2715 74.426 32.4661 76.2315 32.4661 78.4586C32.4661 80.6857 34.2715 82.4911 36.4986 82.4911Z" fill="#7173FC"/>
<path d="M33.1412 31.5744C35.3683 31.5744 37.1737 29.7689 37.1737 27.5418C37.1737 25.3147 35.3683 23.5093 33.1412 23.5093C30.9141 23.5093 29.1086 25.3147 29.1086 27.5418C29.1086 29.7689 30.9141 31.5744 33.1412 31.5744Z" fill="#7173FC"/>
<path d="M39.856 14.6022C42.0832 14.6022 43.8886 12.7968 43.8886 10.5697C43.8886 8.34255 42.0832 6.53711 39.856 6.53711C37.6289 6.53711 35.8235 8.34255 35.8235 10.5697C35.8235 12.7968 37.6289 14.6022 39.856 14.6022Z" fill="#7173FC"/>
<path d="M66.144 65.5702C68.3711 65.5702 70.1766 63.7648 70.1766 61.5377C70.1766 59.3106 68.3711 57.5051 66.144 57.5051C63.9169 57.5051 62.1115 59.3106 62.1115 61.5377C62.1115 63.7648 63.9169 65.5702 66.144 65.5702Z" fill="#7173FC"/>
<path d="M66.144 99.4626C68.3711 99.4626 70.1766 97.6571 70.1766 95.43C70.1766 93.2029 68.3711 91.3975 66.144 91.3975C63.9169 91.3975 62.1115 93.2029 62.1115 95.43C62.1115 97.6571 63.9169 99.4626 66.144 99.4626Z" fill="#7173FC"/>
<path d="M72.8588 48.5458C75.086 48.5458 76.8914 46.7404 76.8914 44.5133C76.8914 42.2861 75.086 40.4807 72.8588 40.4807C70.6317 40.4807 68.8263 42.2861 68.8263 44.5133C68.8263 46.7404 70.6317 48.5458 72.8588 48.5458Z" fill="#7173FC"/>
<path d="M95.2527 99.4626C97.4798 99.4626 99.2852 97.6571 99.2852 95.43C99.2852 93.2029 97.4798 91.3975 95.2527 91.3975C93.0255 91.3975 91.2201 93.2029 91.2201 95.43C91.2201 97.6571 93.0255 99.4626 95.2527 99.4626Z" fill="#7173FC"/>
<path d="M101.967 82.4911C104.195 82.4911 106 80.6857 106 78.4586C106 76.2315 104.195 74.426 101.967 74.426C99.7404 74.426 97.9349 76.2315 97.9349 78.4586C97.9349 80.6857 99.7404 82.4911 101.967 82.4911Z" fill="#7173FC"/>
<path d="M99.1491 31.5744C101.376 31.5744 103.182 29.7689 103.182 27.5418C103.182 25.3147 101.376 23.5093 99.1491 23.5093C96.922 23.5093 95.1166 25.3147 95.1166 27.5418C95.1166 29.7689 96.922 31.5744 99.1491 31.5744Z" fill="#7173FC"/>
</g>
<defs>
<clipPath id="clip0_613_10813">
<rect width="106" height="106" fill="white"/>
</clipPath>
</defs>
</svg>
