<svg width="122" height="122" viewBox="0 0 122 122" fill="none" xmlns="http://www.w3.org/2000/svg">
<g clip-path="url(#clip0_613_11564)">
<path d="M101.626 67.8561C96.5314 57.5035 78.2939 48.842 73.9854 38.3412C75.626 29.5438 85.8795 26.4225 88.0998 17.8216C89.2545 13.3502 87.8889 7.8831 83.5789 5.61465C77.729 2.53591 74.2184 6.90683 69.5428 9.08694C67.4103 10.0814 67.958 15.6085 67.7456 8.18294C67.7218 7.35957 67.9693 6.4999 67.806 5.6676C67.4163 3.68887 66.794 1.89963 64.9143 0.83531C59.7022 -2.11612 57.296 3.47173 54.6602 6.45825C51.6769 9.83892 52.539 7.77929 49.2457 6.4056C47.3527 5.61584 46.1703 5.10509 44.1475 5.5614C30.2658 8.68952 43.0279 29.9938 49.0958 37.3816C48.5125 41.9069 28.6039 52.8821 25.3797 57.1192C19.0521 65.436 16.0774 76.2095 17.5002 86.5787C20.2493 106.607 37.1806 119.89 56.6106 121.767C75.88 123.627 94.5681 114.306 102.025 95.9218C105.716 86.8197 106.001 76.7494 101.626 67.8561ZM70.6708 66.2165C69.9072 66.2575 69.1862 66.3935 68.5139 66.6677C67.0135 65.4101 65.7404 63.9588 65.1083 61.9443C64.5865 60.2803 61.7282 59.951 61.3953 61.9443C60.7894 65.577 62.2184 68.3228 65.0705 70.6249C66.946 72.139 69.326 73.1849 70.8552 75.0729C74.1541 79.1457 70.8195 83.3272 67.3791 85.4865C66.6563 85.5147 65.9786 85.9106 65.7847 86.8227C65.4123 88.5786 65.124 90.3571 64.9259 92.1419C64.9229 92.1684 64.92 92.2317 64.917 92.2719C64.3465 92.52 63.8018 92.7237 63.3294 92.8207C63.0721 92.8733 62.8719 92.9156 62.6453 92.9626C62.3654 91.1873 62.1571 89.1542 62.0054 88.0262C62.4076 87.3658 62.1411 86.4529 61.492 85.9666C59.7828 84.686 57.7719 84.1699 56.3444 82.4615C55.7298 81.7262 55.2248 80.8133 54.9597 79.8888C54.767 79.2174 54.7869 78.5431 54.8027 77.8652C54.8223 77.8669 54.8422 77.8705 54.8615 77.8726C55.9812 77.9856 57.0961 78.0073 58.2202 78.0228C58.3517 78.0246 58.487 77.9452 58.6248 77.9172C59.4187 79.8757 60.9081 81.9044 63.0037 81.982C65.1291 82.0606 66.5896 79.9465 66.1173 77.9282C65.4608 75.1264 61.4396 73.8592 59.366 72.5087C56.8513 70.8706 54.5977 68.1485 54.8839 64.9172C55.2048 61.2863 58.2937 60.3925 60.9527 58.8644C61.5994 58.4929 61.7118 57.8031 61.4994 57.212C61.55 57.0993 61.5878 56.9838 61.5786 56.8568C61.6077 56.8259 61.6381 56.7917 61.6764 56.6031C61.799 56.2432 61.9064 55.8791 61.9986 55.5111C62.1815 54.768 62.2931 54.0074 62.4237 53.2528C62.6536 51.9273 62.6935 49.9503 63.4877 48.7852C64.074 47.9252 63.9017 48.4291 64.2361 49.4357C64.4714 50.1437 64.6362 50.8844 64.7462 51.6224C65.0059 53.367 64.806 55.1425 65.1966 56.8616C65.4033 57.7712 66.2562 58.1112 67.0531 58.0056C69.6954 60.0679 73.8974 62.9765 70.6708 66.2165ZM68.0282 37.5527C68.1103 38.3374 68.2242 39.0986 68.3896 39.8214C63.7988 39.6174 58.6872 41.4354 54.1143 40.1189C54.092 39.2875 53.8891 38.4269 53.4236 37.5223C53.4061 37.2977 53.3507 37.069 53.2374 36.8411C53.2198 36.8066 53.1904 36.7552 53.1717 36.7186C57.7559 38.9347 63.5974 39.5811 68.0282 37.5527Z" fill="#7173FC"/>
</g>
<defs>
<clipPath id="clip0_613_11564">
<rect width="122" height="122" fill="white"/>
</clipPath>
</defs>
</svg>
