<svg width="32" height="32" viewBox="0 0 32 32" fill="none" xmlns="http://www.w3.org/2000/svg">
<g clip-path="url(#clip0_1415_1273)">
<path d="M0 0H4V18H0V0Z" fill="white"/>
<path d="M4 0H28V18H32V32H0V18H4V0Z" fill="#7173FC"/>
<path d="M28 0H32V18H28V0Z" fill="white"/>
<path d="M6 2H26V18H6V2Z" fill="white"/>
<path d="M8 4H24V16H8V4Z" fill="#7173FC"/>
<path d="M10 6H12V10H10V6Z" fill="white"/>
<path d="M10 12H12V14H10V12Z" fill="white"/>
<path d="M2 20H30V28H28V26H26V28H24V26H22V28H20V26H18V28H16V26H14V28H12V26H10V28H8V26H6V28H4V26H2V20Z" fill="white"/>
<path d="M20 22H28V24H20V22Z" fill="#7173FC"/>
</g>
<defs>
<clipPath id="clip0_1415_1273">
<rect width="32" height="32" fill="white"/>
</clipPath>
</defs>
</svg>
