<svg width="32" height="32" viewBox="0 0 32 32" fill="none" xmlns="http://www.w3.org/2000/svg">
<path d="M21.8182 1.45459V2.90914H24.7273V4.36368H26.1819V5.81823H27.6364V7.27277H29.091V10.1819H30.5455V21.8182H29.091V24.7273H27.6364V26.1819H26.1819V27.6364H24.7273V29.091H21.8182V30.5455H10.1819V29.091H7.27277V27.6364H5.81823V26.1819H4.36368V24.7273H2.90914V21.8182H1.45459V10.1819H2.90914V7.27277H4.36368V5.81823H5.81823V4.36368H7.27277V2.90914H10.1819V1.45459H21.8182ZM20.3637 4.36368H11.6364V5.81823H8.72732V7.27277H7.27277V8.72732H5.81823V11.6364H4.36368V20.3637H5.81823V23.2728H7.27277V24.7273H8.72732V26.1819H11.6364V27.6364H20.3637V26.1819H23.2728V24.7273H24.7273V23.2728H26.1819V20.3637H27.6364V11.6364H26.1819V8.72732H24.7273V7.27277H23.2728V5.81823H20.3637V4.36368ZM11.6364 8.72732H18.9091V10.1819H20.3637V14.5455H18.9091V17.4546H20.3637V21.8182H18.9091V23.2728H11.6364V8.72732ZM14.5455 11.6364V14.5455H17.4546V11.6364H14.5455ZM17.4546 17.4546H14.5455V20.3637H17.4546V17.4546Z" fill="#1F2040"/>
</svg>
