<svg width="116" height="36" viewBox="0 0 116 36" fill="none" xmlns="http://www.w3.org/2000/svg">
<path d="M39.4452 23.104L42.4641 23.7557C42.1783 25.295 41.464 26.5053 40.3211 27.3867C39.1781 28.2681 37.7929 28.7088 36.1655 28.7088C34.3144 28.7088 32.7429 28.0819 31.4509 26.8281C30.1713 25.5743 29.5315 24.0288 29.5315 22.1916C29.5315 20.3668 30.1713 18.8275 31.4509 17.5737C32.7429 16.3075 34.3144 15.6744 36.1655 15.6744C37.7308 15.6744 39.0912 16.1089 40.2465 16.9779C41.4143 17.8468 42.1473 19.0075 42.4454 20.4599L39.4266 21.2233C39.2402 20.3171 38.8551 19.6344 38.2712 19.1751C37.6998 18.7158 36.9978 18.4861 36.1655 18.4861C35.1716 18.4861 34.3269 18.8399 33.6312 19.5475C32.9479 20.2551 32.6062 21.1364 32.6062 22.1916C32.6062 23.2468 32.9479 24.1343 33.6312 24.8543C34.3269 25.5619 35.1716 25.9157 36.1655 25.9157C36.9854 25.9157 37.6811 25.6798 38.2526 25.2081C38.8365 24.7364 39.234 24.035 39.4452 23.104Z" fill="#1F2040"/>
<path d="M53.9183 25.7854V28.4295H44.191V15.9537H53.8624V18.5978H47.2657V20.944H53.322V23.4392H47.2657V25.7854H53.9183Z" fill="#1F2040"/>
<path d="M66.2732 18.6351H62.2295V28.4295H59.1733V18.6351H55.1296V15.9537H66.2732V18.6351Z" fill="#1F2040"/>
<path d="M79.1628 28.4295H75.4545L71.6902 24.1468H70.7958V28.4295H67.721V15.9537H74.0382C75.3924 15.9537 76.4794 16.3324 77.2993 17.0896C78.1192 17.8344 78.5292 18.8151 78.5292 20.0316C78.5292 21.0495 78.2373 21.9123 77.6534 22.6199C77.0695 23.315 76.2682 23.7743 75.2495 23.9978L79.1628 28.4295ZM70.7958 21.5771H73.7028C74.2494 21.5771 74.6842 21.4406 75.0072 21.1675C75.3427 20.8944 75.5104 20.5282 75.5104 20.0689C75.5104 19.622 75.3427 19.262 75.0072 18.9889C74.6842 18.7158 74.2494 18.5792 73.7028 18.5792H70.7958V21.5771Z" fill="#1F2040"/>
<path d="M93 28.4295H89.7203L88.8444 26.1578H83.5894L82.7136 28.4295H79.4152L84.633 15.9537H87.7823L93 28.4295ZM87.8195 23.5137L86.2169 19.4171L84.633 23.5137H87.8195Z" fill="#1F2040"/>
<path d="M6.8076 14.7547H2.57452V33.6326H6.8076V14.7547Z" fill="#1F2040"/>
<path d="M12.7624 10.3185H8.52936V29.1964H12.7624V10.3185Z" fill="#1F2040"/>
<path d="M18.6957 16.8959H14.4628V36H18.6957V16.8959Z" fill="#1F2040"/>
<path d="M24.6291 6.52029H20.3963V25.6244H24.6291V6.52029Z" fill="#1F2040"/>
<path d="M22.714 3H22.2969V25.604H22.714V3Z" fill="#1F2040"/>
<path d="M10.8008 11.7081H10.3836V32.0424H10.8008V11.7081Z" fill="#1F2040"/>
<path d="M3.40711 35.9796C5.2888 35.9796 6.81421 34.7042 6.81421 33.1309C6.81421 31.5576 5.2888 30.2822 3.40711 30.2822C1.52541 30.2822 0 31.5576 0 33.1309C0 34.7042 1.52541 35.9796 3.40711 35.9796Z" fill="#1F2040"/>
<g clip-path="url(#clip0_1440_1151)">
<path opacity="0.5" d="M113.778 0.224121H94.2222C93.1176 0.224121 92.2222 1.12727 92.2222 2.24136V10.7586C92.2222 11.8727 93.1176 12.7758 94.2222 12.7758H113.778C114.882 12.7758 115.778 11.8727 115.778 10.7586V2.24136C115.778 1.12727 114.882 0.224121 113.778 0.224121Z" fill="white" stroke="#1F2040"/>
<path d="M96.0176 3.94482H99.1394L99.8505 4.66207V6.06786L99.566 6.36193L100.071 6.87834V8.19089L99.3029 8.96551H96.0176V3.94482ZM98.6416 6.04634L98.8976 5.78813V5.01351L98.6487 4.76248H96.9634V6.04634H98.6416ZM98.8122 8.14786L99.118 7.83945V7.13655L98.8122 6.82813H96.9634V8.14786H98.8122ZM100.781 3.94482H104.38V4.76965H101.749V6.03917H104.173V6.84965H101.749V8.14069H104.38V8.96551H100.781V3.94482ZM106.225 4.76965H104.738V3.94482H108.678V4.76965H107.192V8.96551H106.225V4.76965ZM110.002 3.94482H110.883L112.704 8.96551H111.723L111.317 7.85379H109.568L109.163 8.96551H108.181L110.002 3.94482ZM111.104 7.05048L110.443 5.14262H110.428L109.788 7.05048H111.104Z" fill="#8F90A0"/>
</g>
<defs>
<clipPath id="clip0_1440_1151">
<rect width="24" height="13" fill="white" transform="translate(92)"/>
</clipPath>
</defs>
</svg>
