<svg width="51" height="51" viewBox="0 0 51 51" fill="none" xmlns="http://www.w3.org/2000/svg">
<g clip-path="url(#clip0_1415_1667)">
<path d="M22.9502 37.7718C23.7471 37.7718 24.4643 38.4093 24.4643 39.2858C24.4643 40.0827 23.8268 40.7999 22.9502 40.7999C22.1534 40.7999 21.4362 40.1624 21.4362 39.2858C21.4362 38.4093 22.1534 37.7718 22.9502 37.7718ZM46.3784 28.528C45.5815 28.528 44.8643 27.8905 44.8643 27.0139C44.8643 26.2171 45.5018 25.4999 46.3784 25.4999C47.1752 25.4999 47.8924 26.1374 47.8924 27.0139C47.8924 27.8108 47.1752 28.528 46.3784 28.528ZM46.3784 22.3921C43.8284 22.3921 41.7565 24.4639 41.7565 27.0139C41.7565 27.4921 41.8362 27.9702 41.9955 28.4483L26.7752 36.5764C25.8987 35.3014 24.4643 34.5843 22.9502 34.5843C21.1971 34.5843 19.6034 35.6202 18.8065 37.1343L5.10023 29.9624C3.66586 29.1655 2.55023 26.8546 2.70961 24.6233C2.7893 23.5077 3.18773 22.6311 3.74555 22.3124C4.14398 22.0733 4.54242 22.153 5.10023 22.3921L5.17992 22.4718C8.84555 24.3843 20.719 30.5999 21.1971 30.8389C21.994 31.1577 22.3924 31.3171 23.7471 30.6796L48.2909 17.9296C48.6893 17.7702 49.0877 17.4514 49.0877 16.8936C49.0877 16.1764 48.3705 15.8577 48.3705 15.8577C46.9362 15.2202 44.7846 14.1843 42.7127 13.228C38.2502 11.1561 33.1502 8.7655 30.919 7.57019C29.0065 6.53425 27.4127 7.41081 27.1737 7.57019L26.6159 7.80925C16.4955 12.9093 3.10805 19.5233 2.31117 20.0014C0.956484 20.7983 0.0799212 22.4718 0.000233678 24.5436C-0.159141 27.8108 1.5143 31.2374 3.90492 32.4327L18.408 39.9233C18.7268 42.1546 20.719 43.9077 22.9502 43.9077C25.5002 43.9077 27.4924 41.9155 27.5721 39.3655L43.5096 30.7593C44.3065 31.3968 45.3424 31.7155 46.3784 31.7155C48.9284 31.7155 51.0002 29.6436 51.0002 27.0936C51.0002 24.4639 48.9284 22.3921 46.3784 22.3921Z" fill="#7173FC"/>
</g>
<defs>
<clipPath id="clip0_1415_1667">
<rect width="51" height="51" fill="white"/>
</clipPath>
</defs>
</svg>
