<svg width="41" height="41" viewBox="0 0 41 41" fill="none" xmlns="http://www.w3.org/2000/svg">
<path d="M20.5 0C9.18058 0 0 9.17888 0 20.5C0 29.5576 5.87325 37.2417 14.0203 39.9528C15.0436 40.1424 15.375 39.5069 15.375 38.9671V35.1507C9.67258 36.3909 8.48529 32.7317 8.48529 32.7317C7.55254 30.3622 6.20808 29.7318 6.20808 29.7318C4.34771 28.4591 6.34987 28.4865 6.34987 28.4865C8.40842 28.63 9.4915 30.5997 9.4915 30.5997C11.3194 33.7328 14.2868 32.8273 15.457 32.3029C15.6398 30.9789 16.1711 30.0735 16.7588 29.5627C12.206 29.0417 7.41929 27.2838 7.41929 19.4306C7.41929 17.191 8.2205 15.363 9.53079 13.928C9.31896 13.4104 8.61683 11.3245 9.73067 8.50238C9.73067 8.50238 11.4527 7.95229 15.3699 10.6036C17.0047 10.1492 18.7575 9.922 20.5 9.91346C22.2425 9.922 23.997 10.1492 25.6353 10.6036C29.549 7.95229 31.2676 8.50238 31.2676 8.50238C32.3832 11.3263 31.681 13.4121 31.4692 13.928C32.7846 15.363 33.579 17.1927 33.579 19.4306C33.579 27.3043 28.7837 29.0382 24.219 29.5456C24.9536 30.1811 25.625 31.4282 25.625 33.3415V38.9671C25.625 39.512 25.953 40.1527 26.9934 39.9511C35.1336 37.2365 41 29.5542 41 20.5C41 9.17888 31.8211 0 20.5 0Z" fill="#7173FC"/>
</svg>
