<svg width="33" height="33" viewBox="0 0 33 33" fill="none" xmlns="http://www.w3.org/2000/svg">
<path d="M9.30715 7.08984C14.4474 7.08984 18.614 11.2856 18.614 16.4609C18.614 21.6362 14.447 25.8316 9.30715 25.8316C4.16725 25.8316 0 21.6362 0 16.4609C0 11.2856 4.16694 7.08984 9.30715 7.08984ZM24.17 7.63877C26.7401 7.63877 28.8236 11.5882 28.8236 16.4609H28.8239C28.8239 21.3323 26.7404 25.283 24.1703 25.283C21.6002 25.283 19.5167 21.3323 19.5167 16.4609C19.5167 11.5894 21.5999 7.63877 24.17 7.63877ZM31.3633 8.55766C32.267 8.55766 33 12.096 33 16.4609C33 20.8245 32.2674 24.3641 31.3633 24.3641C30.4593 24.3641 29.727 20.8254 29.727 16.4609C29.727 12.0963 30.4596 8.55766 31.3633 8.55766Z" fill="white"/>
</svg>
