<svg width="58" height="34" viewBox="0 0 58 34" fill="none" xmlns="http://www.w3.org/2000/svg">
<path d="M16.358 0.460938C25.3923 0.460938 32.7155 7.83522 32.7155 16.9312C32.7155 26.0272 25.3918 33.4009 16.358 33.4009C7.32426 33.4009 0 26.0272 0 16.9312C0 7.83522 7.32371 0.460938 16.358 0.460938ZM42.4806 1.42572C46.9978 1.42572 50.6596 8.36707 50.6596 16.9312H50.6602C50.6602 25.4931 46.9983 32.4367 42.4812 32.4367C37.964 32.4367 34.3022 25.4931 34.3022 16.9312C34.3022 8.3693 37.9635 1.42572 42.4806 1.42572ZM55.1234 3.04074C56.7118 3.04074 58 9.25961 58 16.9312C58 24.6006 56.7123 30.8217 55.1234 30.8217C53.5345 30.8217 52.2474 24.6023 52.2474 16.9312C52.2474 9.26017 53.5351 3.04074 55.1234 3.04074Z" fill="#7173FC"/>
</svg>
