<svg width="33" height="33" viewBox="0 0 33 33" fill="none" xmlns="http://www.w3.org/2000/svg">
<g clip-path="url(#clip0_1201_1238)">
<path d="M32.2522 6.10904C31.7338 6.33898 31.2008 6.53304 30.6562 6.69059C31.3009 5.96139 31.7925 5.10339 32.0926 4.16449C32.1599 3.95403 32.0902 3.72367 31.9172 3.58603C31.7444 3.44828 31.5044 3.43178 31.3141 3.54452C30.1576 4.23049 28.9097 4.72347 27.6013 5.01174C26.2833 3.72389 24.4933 2.99097 22.6427 2.99097C18.7365 2.99097 15.5585 6.16887 15.5585 10.075C15.5585 10.3826 15.5779 10.6886 15.6165 10.9903C10.7692 10.5647 6.26278 8.18219 3.16824 4.38623C3.05795 4.25093 2.88805 4.17801 2.71411 4.19195C2.54006 4.20558 2.38369 4.30373 2.29576 4.45457C1.66812 5.53154 1.33631 6.76329 1.33631 8.01655C1.33631 9.7235 1.94575 11.3431 3.02229 12.6086C2.69495 12.4952 2.3773 12.3535 2.07413 12.1852C1.91136 12.0946 1.71272 12.096 1.55102 12.1887C1.38922 12.2814 1.28777 12.452 1.28351 12.6384C1.28276 12.6698 1.28276 12.7012 1.28276 12.733C1.28276 15.2809 2.65407 17.5748 4.75064 18.8251C4.57052 18.8071 4.39051 18.781 4.21167 18.7469C4.0273 18.7116 3.83771 18.7763 3.71337 18.9169C3.58883 19.0574 3.54763 19.2533 3.60501 19.4321C4.38104 21.8549 6.37903 23.637 8.79442 24.1804C6.7911 25.4351 4.50016 26.0924 2.0952 26.0924C1.59339 26.0924 1.0887 26.0629 0.594768 26.0044C0.349397 25.9753 0.114777 26.1201 0.0312129 26.3535C-0.0523516 26.5869 0.0362161 26.8472 0.244968 26.981C3.33451 28.962 6.90692 30.009 10.5758 30.009C17.7883 30.009 22.3003 26.6079 24.8152 23.7547C27.9512 20.197 29.7498 15.4879 29.7498 10.835C29.7498 10.6406 29.7469 10.4443 29.7409 10.2486C30.9782 9.31643 32.0434 8.18825 32.9103 6.89157C33.042 6.69463 33.0277 6.43436 32.8752 6.25307C32.7228 6.07168 32.4689 6.01302 32.2522 6.10904Z" fill="white"/>
</g>
<defs>
<clipPath id="clip0_1201_1238">
<rect width="33" height="33" fill="white"/>
</clipPath>
</defs>
</svg>
